<svg viewBox="0 0 2000 1400" xmlns="http://www.w3.org/2000/svg"><path fill="#fff" d="M0 0h2000v1400H0z"/><rect x="433" y="952" width="12" height="23" fill="#b5eaea" rx="0" transform="matrix(.88996 .21112 -.54974 .99324 421.742 -163.573)"/><rect x="1203" y="326" width="12" height="23" fill="#F38BA0" rx="0" transform="matrix(-.37829 .9703 -.9363 -.24192 1934.918 -753.939)"/><rect x="1431" y="794" width="12" height="31" fill="#F38BA0" rx="0" transform="matrix(.86614 .77157 -.54313 .67072 729.57 -536.747)"/><rect x="532" y="1212" width="12" height="34" fill="#F38BA0" rx="0" transform="matrix(.99437 .05237 -.12205 .99924 110.769 -46.025)"/><rect x="1213" y="1271" width="11" height="19" fill="#EDF6E5" rx="0" transform="matrix(-.79962 .50191 -.6074 -.86933 3220.137 1675.5)"/><rect x="1509" y="115" width="13" height="13" fill="#b5eaea" rx="0" transform="matrix(-.95009 -.01846 -.2536 -1.05746 2952.457 799.783)"/><rect x="1506" y="980" width="7" height="8" fill="#FFBCBC" rx="0" transform="matrix(-.32378 .9479 -.92415 -.38298 2700.942 250.85)"/><rect x="1827" y="126" width="8" height="11" fill="#EDF6E5" rx="0" transform="matrix(.19009 .97797 -.9716 .26205 1596.844 -1983.617)"/><rect x="1745" y="1052" width="9" height="19" fill="#F38BA0" rx="0" transform="matrix(-.84453 .33553 -.52763 -.97446 3760.937 1945.075)"/><rect x="909" y="1105" width="10" height="11" fill="#b5eaea" rx="0" transform="matrix(-.27457 .83448 -1.0061 -.58431 2486.244 1174.324)"/><rect x="1859" y="1313" width="10" height="26" fill="#b5eaea" rx="0" transform="matrix(.12088 1.0181 -.98645 -.03555 2887.747 -162.263)"/><rect x="1217" y="795" width="10" height="16" fill="#EDF6E5" rx="0" transform="matrix(.74092 .88308 -.73844 .46954 1163.544 -674.5)"/><rect x="251" y="13" width="7" height="8" fill="#FFBCBC" rx="0" transform="matrix(.47684 1.03512 -.95775 .01807 165.985 -178.552)"/><rect x="409" y="185" width="12" height="32" fill="#F38BA0" rx="0" transform="matrix(.26532 1.02068 -1.00762 -.10728 549.14 -105.21)"/><rect x="1182" y="896" width="8" height="17" fill="#F38BA0" rx="0" transform="matrix(-.10419 .9894 -.98666 -.22842 2143.637 146.8)"/><rect x="771" y="800" width="10" height="15" fill="#F38BA0" rx="0" transform="matrix(-.7339 .74416 -.68298 -.67005 1777.812 811.761)"/><rect x="481" y="881" width="9" height="18" fill="#EDF6E5" rx="0" transform="matrix(-.9748 -.01807 -.5 -1.03512 1658.108 1950.117)"/><rect x="778" y="1283" width="8" height="17" fill="#EDF6E5" rx="0" transform="matrix(-.60344 .7524 -.78573 -.67747 2538.227 1454.214)"/><rect x="398" y="429" width="13" height="23" fill="#EDF6E5" rx="0" transform="matrix(-.85271 .54764 -.51296 -.84329 1003.21 547.935)"/><rect x="1881" y="282" width="7" height="19" fill="#b5eaea" rx="0" transform="matrix(.69257 .99069 -.8108 .28408 963.694 -1188.404)"/><rect x="1423" y="1212" width="12" height="20" fill="#b5eaea" rx="0" transform="matrix(1.02987 .21256 .14054 1 0 0)"/><rect x="87" y="856" width="13" height="20" fill="#F38BA0" rx="0" transform="matrix(-.93892 .54764 -.38021 -.84329 435.647 1535.258)"/><rect x="1857" y="1322" width="8" height="10" fill="#F38BA0" rx="0" transform="matrix(-.98735 -.21525 .00073 -1.01265 3601.803 3570.017)"/><rect x="1154" y="264" width="10" height="19" fill="#EDF6E5" rx="0" transform="matrix(.51391 .82115 -.85795 .57498 748.195 -754.427)"/><rect x="1141" y="942" width="8" height="22" fill="#F38BA0" rx="0" transform="matrix(1.03157 .26076 .01496 .97318 122.8 -132.425)"/><rect x="987" y="1233" width="13" height="29" fill="#EDF6E5" rx="0" transform="matrix(.59506 .8272 -.79223 .57921 1244.828 -157.267)"/><rect x="1768" y="585" width="13" height="18" fill="#EDF6E5" rx="0" transform="matrix(-.18074 .88308 -1.0363 -.46954 2904.649 -725.095)"/><rect x="1214" y="1343" width="7" height="19" fill="#EDF6E5" rx="0" transform="matrix(-.20912 .94566 -.98546 -.32562 2992.022 620.302)"/><rect x="1550" y="391" width="8" height="12" fill="#FFBCBC" rx="0" transform="matrix(.93714 .85828 -.533 .57892 482.175 -750.21)"/><rect x="815" y="751" width="11" height="14" fill="#F38BA0" rx="0" transform="matrix(-.70903 .461 -.77768 -.90475 2167.202 1210.232)"/><rect x="1737" y="1283" width="9" height="10" fill="#b5eaea" rx="0" transform="matrix(-.12217 .99756 -.99176 -.08728 3110.978 -245.575)"/><rect x="1555" y="1000" width="9" height="12" fill="#FFBCBC" rx="0" transform="matrix(-1.00358 -.14178 -.08756 -1.0088 3258.39 2545.094)"/><rect x="1787" y="342" width="13" height="18" fill="#b5eaea" rx="0" transform="matrix(-.93178 .24374 -.3656 -.97758 3625.576 36.772)"/><rect x="943" y="866" width="10" height="19" fill="#F38BA0" rx="0" transform="matrix(-.99324 .0349 -.21112 -.9994 2228.798 1717.382)"/><rect x="1225" y="1124" width="13" height="20" fill="#b5eaea" rx="0" transform="rotate(71 1231.5 1134)"/><rect x="1847" y="1244" width="11" height="30" fill="#EDF6E5" rx="0" transform="matrix(.8874 .71934 -.5332 .69466 1217.238 -948.152)"/><rect x="1290" y="872" width="9" height="17" fill="#FFBCBC" rx="0" transform="matrix(-.73408 .49229 -.70702 -.88811 2964.297 1253.47)"/><rect x="1699" y="975" width="13" height="32" fill="#F38BA0" rx="0" transform="matrix(-.6862 .72034 -.70202 -.72034 3338.337 807.832)"/><rect x="1197" y="1271" width="9" height="22" fill="#EDF6E5" rx="0" transform="matrix(1.03798 .25917 .0154 .96725 245.137 -206.446)"/><rect x="1598" y="135" width="11" height="20" fill="#FFBCBC" rx="0" transform="matrix(1.0012 .6905 -.37457 .74047 151.866 -815.615)"/><rect x="1273" y="1049" width="12" height="23" fill="#EDF6E5" rx="0" transform="matrix(.97105 .35842 -.26033 .93372 407.841 -365.81)"/><rect x="1070" y="804" width="7" height="18" fill="#b5eaea" rx="0" transform="matrix(.13702 .96322 -1.08537 -.33166 2101.769 257.296)"/><rect x="172" y="357" width="8" height="15" fill="#F38BA0" rx="0" transform="matrix(-.72664 .78813 -.7011 -.61576 501.226 453.304)"/><rect x="201" y="1105" width="12" height="29" fill="#b5eaea" rx="0" transform="matrix(-.85855 .18365 -.57593 -1.04155 1133.657 2318.778)"/><rect x="577" y="1238" width="10" height="20" fill="#b5eaea" rx="0" transform="matrix(-.68905 .77357 -.71452 -.6491 1956.298 1526.068)"/><rect x="1355" y="1031" width="8" height="20" fill="#FFBCBC" rx="0" transform="matrix(.07039 .99467 -1.01275 -.10454 2486.258 -178.209)"/><rect x="615" y="1278" width="12" height="12" fill="#EDF6E5" rx="0" transform="matrix(-1.0238 .4118 -.12883 -.92493 1255.565 2117.525)"/><rect x="580" y="397" width="7" height="8" fill="#FFBCBC" rx="0" transform="matrix(-.00104 .98274 -1.01727 -.2818 1028.743 64.6)"/><rect x="879" y="202" width="8" height="21" fill="#b5eaea" rx="0" transform="matrix(-.6687 .7436 -.74272 -.66954 1637.626 -332.655)"/><rect x="1112" y="697" width="9" height="11" fill="#b5eaea" rx="0" transform="matrix(.58953 .96607 -.87715 .25886 1309.074 -538.48)"/><rect x="385" y="1377" width="13" height="23" fill="#F38BA0" rx="0" transform="matrix(1.02171 .1046 .15999 .99513 93.075 -20.512)"/><rect x="1921" y="1047" width="7" height="7" fill="#EDF6E5" rx="0" transform="matrix(-1.00347 .42914 -.1783 -.92029 3980.77 852.047)"/><rect x="1191" y="127" width="12" height="22" fill="#b5eaea" rx="0" transform="matrix(.91374 .91458 -.5869 .50696 291.365 -660.756)"/><rect x="1618" y="720" width="12" height="19" fill="#FFBCBC" rx="0" transform="matrix(.25916 .94027 -.9692 .34223 1813.63 -990.435)"/><rect x="1963" y="1292" width="8" height="14" fill="#EDF6E5" rx="0" transform="matrix(.06984 .99954 -.99802 .0349 3192.336 -746.777)"/><rect x="1843" y="554" width="7" height="13" fill="#EDF6E5" rx="0" transform="matrix(-.08728 .99146 -1.02244 .15703 2517.542 -1519.797)"/><rect x="172" y="318" width="12" height="32" fill="#b5eaea" rx="0" transform="matrix(-.54822 .89318 -.84026 -.4551 495.142 339.464)"/><rect x="1947" y="771" width="13" height="13" fill="#EDF6E5" rx="0" transform="matrix(-.5592 .75045 -.82904 -.6757 3690.46 111.408)"/><rect x="1644" y="1339" width="11" height="32" fill="#EDF6E5" rx="0" transform="matrix(.54998 .9614 -.88244 .27568 2308.795 -575.596)"/><rect x="478" y="454" width="10" height="15" fill="#F38BA0" rx="0" transform="matrix(-1.00076 -.01746 -.06988 -1.00046 1023.69 948.512)"/><rect x="369" y="410" width="9" height="14" fill="#F38BA0" rx="0" transform="matrix(-.83425 .60633 -.54217 -.80463 930.627 480.206)"/><rect x="1233" y="662" width="10" height="29" fill="#b5eaea" rx="0" transform="matrix(-.37426 .84187 -.94478 -.54672 2503.4 -104.195)"/><rect x="850" y="1202" width="13" height="17" fill="#b5eaea" rx="0" transform="matrix(-1.015 -.0885 -.30217 -1.01156 2381.03 2661.821)"/><rect x="46" y="1234" width="10" height="25" fill="#b5eaea" rx="0" transform="matrix(-.4131 .83018 -.92592 -.55996 1379.609 1904.824)"/><rect x="1683" y="961" width="10" height="29" fill="#F38BA0" rx="0" transform="matrix(.96126 .20842 -.27564 .98054 334.274 -450.861)"/><rect x="720" y="1171" width="10" height="10" fill="#F38BA0" rx="0" transform="matrix(-.49682 .78316 -.86 -.65715 2050.106 1535.12)"/><rect x="741" y="1115" width="9" height="9" fill="#EDF6E5" rx="0" transform="matrix(-.00232 .96725 -1.03324 -.25917 2150.197 727.63)"/><rect x="1476" y="1111" width="13" height="37" fill="#FFBCBC" rx="0" transform="matrix(-.81188 .51512 -.5901 -.8573 3468.638 1308.28)"/><rect x="146" y="255" width="10" height="18" fill="#FFBCBC" rx="0" transform="matrix(.60135 .74496 -.8009 .67076 228.147 -15.012)"/><rect x="1574" y="829" width="10" height="11" fill="#EDF6E5" rx="0" transform="matrix(.7305 .9742 -.80314 .29784 1401.592 -645.392)"/><rect x="1379" y="1260" width="8" height="12" fill="#b5eaea" rx="0" transform="matrix(.87608 .57577 -.48565 .82228 810.427 -450.297)"/><rect x="483" y="742" width="13" height="15" fill="#b5eaea" rx="0" transform="matrix(-.156 .98616 -.98653 -.17389 1355.878 371.45)"/><rect x="499" y="832" width="10" height="19" fill="#EDF6E5" rx="0" transform="matrix(.51989 1.00452 -.86587 .25046 1004.71 259.508)"/><rect x="1047" y="784" width="13" height="31" fill="#FFBCBC" rx="0" transform="matrix(-.45424 .57267 -1.04675 -.88183 2718 1243.521)"/><rect x="1119" y="1342" width="8" height="17" fill="#F38BA0" rx="0" transform="matrix(-.31004 .91578 -.95393 -.40773 2809.362 951.25)"/><rect x="1951" y="1367" width="10" height="13" fill="#F38BA0" rx="0" transform="matrix(-.5058 .95073 -.87767 -.32736 4048.634 -242.074)"/><rect x="1410" y="750" width="13" height="19" fill="#FFBCBC" rx="0" transform="matrix(.9897 .19375 -.0697 .99677 14.636 -22.23)"/><rect x="741" y="183" width="8" height="21" fill="#EDF6E5" rx="0" transform="matrix(-.90166 .4565 -.42102 -.89591 1506.258 -51.53)"/><rect x="1280" y="1100" width="13" height="15" fill="#F38BA0" rx="0" transform="matrix(-.67845 .84857 -.75452 -.53024 2845.62 558.139)"/><rect x="107" y="1354" width="7" height="16" fill="#FFBCBC" rx="0" transform="matrix(-1.02 .24225 -.03692 -.97163 58.69 2652.796)"/><rect x="1984" y="827" width="7" height="19" fill="#F38BA0" rx="0" transform="matrix(-.1908 .9783 -.98163 -.20794 3187.864 -899.228)"/><rect x="1232" y="655" width="11" height="11" fill="#b5eaea" rx="0" transform="matrix(-.93364 .13936 -.53225 -.99163 2994.193 1207.861)"/><rect x="445" y="762" width="8" height="10" fill="#F38BA0" rx="0" transform="matrix(-.0693 .99589 -.99685 -.10467 1309.744 376.6)"/><rect x="372" y="85" width="7" height="19" fill="#FFBCBC" rx="0" transform="matrix(-.27564 .9176 -.96126 -.42789 569.841 -150.152)"/><rect x="1168" y="1036" width="13" height="16" fill="#EDF6E5" rx="0" transform="matrix(.92676 .30977 -.37591 .95338 320.204 -233.025)"/><rect x="809" y="120" width="13" height="18" fill="#EDF6E5" rx="0" transform="matrix(.38173 .96322 -.90675 .33166 585.865 -540.77)"/><rect x="1631" y="370" width="8" height="23" fill="#FFBCBC" rx="0" transform="matrix(.93436 .58787 -.41501 .80914 347.14 -916.901)"/><rect x="1508" y="449" width="8" height="12" fill="#EDF6E5" rx="0" transform="matrix(.7872 .8407 -.63828 .58866 654.305 -734.906)"/><rect x="1266" y="479" width="11" height="20" fill="#F38BA0" rx="0" transform="matrix(.02065 .91593 -1.10371 -.52881 1998.931 20.8)"/><rect x="1455" y="674" width="7" height="8" fill="#b5eaea" rx="0" transform="matrix(.08717 .99756 -.99635 .06976 2018.721 -824.242)"/><rect x="264" y="509" width="9" height="25" fill="#EDF6E5" rx="0" transform="matrix(.96716 .57169 -.31534 .84756 213.725 -16.928)"/><rect x="810" y="1231" width="7" height="19" fill="#EDF6E5" rx="0" transform="matrix(.62855 1.03465 -.94457 .03613 1947.797 571.973)"/><rect x="1686" y="266" width="9" height="22" fill="#FFBCBC" rx="0" transform="matrix(.75785 .75887 -.65896 .65967 607.758 -1010.915)"/><rect x="795" y="505" width="8" height="8" fill="#FFBCBC" rx="0" transform="matrix(-.86336 .29398 -.57764 -.96157 1898.108 847.527)"/><rect x="741" y="339" width="11" height="18" fill="#b5eaea" rx="0" transform="matrix(-.15685 .85563 -1.05477 -.62165 1326.478 182.646)"/><rect x="462" y="1095" width="12" height="30" fill="#b5eaea" rx="0" transform="matrix(.86153 .53284 -.498 .85272 536.523 -36.698)"/><rect x="830" y="545" width="9" height="16" fill="#FFBCBC" rx="0" transform="matrix(-.89908 .23523 -.3568 -1.0189 1668.523 1175.28)"/><rect x="1904" y="1198" width="11" height="13" fill="#EDF6E5" rx="0" transform="matrix(-.06987 .98496 -1.00295 -.17367 3394.776 -500.416)"/><rect x="644" y="441" width="7" height="9" fill="#F38BA0" rx="0" transform="matrix(-.19533 .84072 -1.06261 -.54597 1416.356 189.642)"/><rect x="978" y="1147" width="11" height="24" fill="#b5eaea" rx="0" transform="matrix(.62744 .78011 -.77377 .63172 1357.078 -426.456)"/><rect x="346" y="868" width="13" height="30" fill="#b5eaea" rx="0" transform="matrix(-.27747 .98784 -.96836 -.15646 1213.214 666.787)"/><rect x="1151" y="432" width="8" height="22" fill="#EDF6E5" rx="0" transform="matrix(-.40677 .93415 -.90615 -.37742 1933.621 -326.926)"/><rect x="1502" y="1050" width="8" height="9" fill="#FFBCBC" rx="0" transform="matrix(-.48611 .90977 -.8725 -.42423 2970.254 263.498)"/><rect x="1920" y="760" width="7" height="18" fill="#EDF6E5" rx="0" transform="matrix(.85997 .6846 -.5385 .73415 781.975 -944.11)"/><rect x="996" y="945" width="8" height="15" fill="#FFBCBC" rx="0" transform="matrix(-.6775 .37281 -.91738 -.9712 2953.96 1791.506)"/><rect x="1609" y="56" width="10" height="12" fill="#FFBCBC" rx="0" transform="matrix(-1.01278 -.10531 -.14048 -1.002 3289.28 492.274)"/><rect x="1878" y="98" width="11" height="19" fill="#b5eaea" rx="0" transform="matrix(1.0095 .22776 -.01806 .98652 5.315 -129.21)"/><rect x="1497" y="134" width="11" height="11" fill="#b5eaea" rx="0" transform="matrix(1.13202 .6345 -.1271 .81213 -3.613 -552.527)"/><rect x="1784" y="1295" width="9" height="25" fill="#EDF6E5" rx="0" transform="matrix(.73983 1.02284 -.82041 .21741 2000.328 -259.317)"/><rect x="464" y="1090" width="7" height="19" fill="#EDF6E5" rx="0" transform="matrix(.39802 1.03819 -1.04058 -.2018 1739.817 997.003)"/><rect x="1960" y="1081" width="13" height="24" fill="#F38BA0" rx="0" transform="matrix(1.02964 .33413 -.00254 .97039 107.08 -170.704)"/><rect x="1294" y="319" width="9" height="24" fill="#F38BA0" rx="0" transform="matrix(.96766 .711 -.4388 .711 312.501 -691.1)"/><rect x="136" y="1378" width="12" height="29" fill="#b5eaea" rx="0" transform="matrix(-.9773 -.17977 .02 -1.01955 102.566 2875.797)"/><rect x="1402" y="1031" width="9" height="21" fill="#F38BA0" rx="0" transform="matrix(1.00033 -.05273 -.12249 1.00613 81.576 -104.917)"/><rect x="874" y="1325" width="7" height="9" fill="#EDF6E5" rx="0" transform="matrix(.67646 .99646 -.85977 .2118 1857.11 344.087)"/><rect x="1975" y="749" width="7" height="19" fill="#b5eaea" rx="0" transform="matrix(.07532 .94487 -1.03094 .3439 2514.375 -1579.723)"/><rect x="967" y="69" width="13" height="31" fill="#b5eaea" rx="0" transform="matrix(.99013 .07002 -.12147 1.00137 19.845 -153.454)"/><rect x="133" y="834" width="7" height="12" fill="#EDF6E5" rx="0" transform="matrix(-.40612 .86814 -.91742 -.50122 1108.996 1132.98)"/><rect x="1505" y="760" width="13" height="24" fill="#b5eaea" rx="0" transform="matrix(1.15638 .62931 -.05446 .83513 230.612 -361.812)"/><rect x="1260" y="153" width="13" height="23" fill="#b5eaea" rx="0" transform="matrix(-.8194 .3439 -.65651 -.94487 2480.973 17.49)"/><rect x="845" y="1383" width="9" height="21" fill="#FFBCBC" rx="0" transform="matrix(-.37701 .78597 -.93286 -.70769 2499.138 2004.49)"/><rect x="443" y="204" width="12" height="16" fill="#FFBCBC" rx="0" transform="matrix(-.70573 .42767 -.75317 -.96056 956.855 369.504)"/><rect x="1130" y="297" width="12" height="19" fill="#F38BA0" rx="0" transform="matrix(.9855 .55483 -.2848 .85437 159.19 -364.838)"/><rect x="47" y="1183" width="11" height="27" fill="#EDF6E5" rx="0" transform="matrix(.73469 .9063 -.76079 .42262 1336.2 643.256)"/><rect x="1507" y="542" width="13" height="37" fill="#EDF6E5" rx="0" transform="matrix(.18365 .98769 -1.04155 -.15643 2012.326 -846.685)"/><rect x="1718" y="813" width="9" height="16" fill="#b5eaea" rx="0" transform="matrix(-.81013 .54464 -.5886 -.83867 3644.205 571.408)"/><rect x="1538" y="1257" width="10" height="22" fill="#FFBCBC" rx="0" transform="matrix(1.0175 .59511 -.27989 .8191 649.357 -444.491)"/><rect x="1660" y="14" width="10" height="25" fill="#EDF6E5" rx="0" transform="matrix(.84396 .9712 -.70568 .37281 404.146 -1123.002)"/><rect x="1596" y="919" width="8" height="16" fill="#FFBCBC" rx="0" transform="matrix(.49198 1.04123 -1.02955 -.14634 2209.569 -83.443)"/><rect x="1299" y="975" width="9" height="21" fill="#F38BA0" rx="0" transform="matrix(-.1041 .99863 -.99227 -.08737 2463.943 -321.259)"/><rect x="1183" y="160" width="10" height="14" fill="#EDF6E5" rx="0" transform="matrix(-.4334 .8407 -.88602 -.58866 1819.98 -459.172)"/><rect x="399" y="824" width="7" height="11" fill="#b5eaea" rx="0" transform="matrix(.47427 .97318 -.90048 .26076 1227.16 172.072)"/><rect x="251" y="841" width="9" height="19" fill="#b5eaea" rx="0" transform="matrix(-.85103 .30906 -.61638 -.9512 1258.556 1584.99)"/><rect x="1588" y="537" width="13" height="25" fill="#FFBCBC" rx="0" transform="matrix(-.22193 .93073 -.98476 -.37604 2591.726 -867.41)"/><rect x="441" y="474" width="9" height="12" fill="#FFBCBC" rx="0" transform="matrix(-.53237 .70288 -.85183 -.75374 1101.865 639.74)"/><rect x="326" y="817" width="8" height="15" fill="#b5eaea" rx="0" transform="matrix(.99449 .27716 -.1399 .96656 147.167 -29.203)"/><rect x="529" y="1299" width="7" height="18" fill="#F38BA0" rx="0" transform="matrix(-.47182 .62304 -.9789 -.8268 2399.055 2200.377)"/><rect x="1587" y="91" width="9" height="13" fill="#b5eaea" rx="0" transform="matrix(-.97776 .10454 -.26254 -.99467 3185.498 .319)"/><rect x="201" y="925" width="9" height="12" fill="#F38BA0" rx="0" transform="matrix(-.27625 .98297 -.96362 -.19107 1127.267 896.116)"/><rect x="41" y="33" width="11" height="19" fill="#EDF6E5" rx="0" transform="matrix(-.85778 .16195 -.75882 -1.02253 137.56 90.886)"/><rect x="1149" y="83" width="8" height="10" fill="#b5eaea" rx="0" transform="matrix(.27925 .8977 -.97168 .4574 920.282 -1128.867)"/><rect x="1533" y="1089" width="8" height="8" fill="#FFBCBC" rx="0" transform="matrix(.97206 .12339 -.18772 1.00492 322.452 -438.46)"/><rect x="189" y="1003" width="9" height="14" fill="#EDF6E5" rx="0" transform="matrix(.12268 1.00986 -1.00313 -.10614 1237.64 955.913)"/><rect x="1434" y="1163" width="11" height="13" fill="#F38BA0" rx="0" transform="matrix(1.04553 .32877 -.00521 .95481 207.204 -218.104)"/><rect x="1788" y="1327" width="8" height="15" fill="#F38BA0" rx="0" transform="matrix(-.90485 .54497 -.44162 -.83918 3891.546 1415.222)"/><rect x="819" y="607" width="9" height="19" fill="#EDF6E5" rx="0" transform="matrix(.55622 .99451 -.8248 .32314 858.784 -149.925)"/><rect x="488" y="1225" width="10" height="11" fill="#EDF6E5" rx="0" transform="matrix(-.5188 .7885 -.86291 -.61604 1919.745 1617.023)"/><rect x="1354" y="786" width="7" height="9" fill="#F38BA0" rx="0" transform="matrix(.67658 .58242 -.7507 .83179 1003.582 -897.035)"/><rect x="453" y="546" width="7" height="10" fill="#EDF6E5" rx="0" transform="matrix(.80335 .69561 -.60569 .72033 463.707 -139.523)"/><rect x="1028" y="390" width="13" height="35" fill="#FFBCBC" rx="0" transform="matrix(-.57589 .74416 -.82525 -.67005 2028.843 -143.51)"/><rect x="1319" y="1344" width="9" height="21" fill="#EDF6E5" rx="0" transform="matrix(.73393 .47409 -.729 .89162 1154.51 -666.664)"/><rect x="140" y="1037" width="9" height="18" fill="#F38BA0" rx="0" transform="matrix(-.17227 .97284 -.96522 -.35409 1084.108 1314.516)"/><rect x="1449" y="1035" width="9" height="22" fill="#EDF6E5" rx="0" transform="matrix(.93682 .4098 -.33613 .9204 612.05 -690.844)"/><rect x="936" y="282" width="13" height="31" fill="#EDF6E5" rx="0" transform="matrix(.34433 1 -.97592 .06993 988.052 -731.71)"/><rect x="517" y="923" width="11" height="18" fill="#b5eaea" rx="0" transform="matrix(-.0001 .99451 -1.00549 -.32314 1478.72 873.275)"/><rect x="402" y="362" width="9" height="25" fill="#EDF6E5" rx="0" transform="matrix(.99342 -.05285 -.0343 1.00844 32.153 -38.808)"/><rect x="1120" y="1101" width="10" height="20" fill="#EDF6E5" rx="0" transform="matrix(-.91843 .20804 -.48595 -.97874 2984.918 2003.627)"/><rect x="783" y="894" width="8" height="13" fill="#FFBCBC" rx="0" transform="matrix(-.35917 .95481 -.92366 -.32877 1723.133 555.725)"/><rect x="438" y="57" width="8" height="12" fill="#FFBCBC" rx="0" transform="matrix(-.03496 1.00293 -1.00262 .15885 520.877 -468.237)"/><rect x="1200" y="1033" width="8" height="8" fill="#EDF6E5" rx="0" transform="matrix(1.05023 .50191 -.17334 .86933 446.84 -363.462)"/><rect x="1389" y="699" width="10" height="11" fill="#FFBCBC" rx="0" transform="matrix(.79655 .8151 -.64813 .5922 863.277 -677.782)"/><rect x="550" y="294" width="12" height="14" fill="#F38BA0" rx="0" transform="matrix(.49865 .95298 -.83768 .40451 475.641 -201.634)"/><rect x="775" y="483" width="13" height="18" fill="#EDF6E5" rx="0" transform="matrix(.07016 1.00137 -.99372 .07002 1252.646 -393.398)"/><rect x="184" y="740" width="13" height="37" fill="#EDF6E5" rx="0" transform="matrix(.91852 .80547 -.47079 .67587 444.391 154.31)"/><rect x="321" y="1027" width="9" height="16" fill="#b5eaea" rx="0" transform="matrix(.5561 .93372 -.85751 .35842 1234.303 365.788)"/><rect x="780" y="362" width="7" height="19" fill="#F38BA0" rx="0" transform="matrix(.95227 .3439 -.29144 .94487 121.88 -166.618)"/><rect x="1672" y="804" width="11" height="14" fill="#EDF6E5" rx="0" transform="matrix(.19481 1.00586 -1.05748 -.32682 2453.164 -33.662)"/><rect x="385" y="398" width="8" height="23" fill="#b5eaea" rx="0" transform="matrix(.6213 .61905 -.82015 .79235 424.788 -196.665)"/><rect x="1281" y="888" width="8" height="18" fill="#b5eaea" rx="0" transform="matrix(.88342 .32736 -.4891 .95073 535.252 -511.52)"/><rect x="85" y="1053" width="9" height="13" fill="#FFBCBC" rx="0" transform="matrix(.65606 .9806 -.75471 .3962 830.398 582.788)"/><rect x="714" y="1215" width="13" height="36" fill="#F38BA0" rx="0" transform="matrix(1.00534 .30573 .01746 1 0 0)"/><rect x="1441" y="253" width="9" height="23" fill="#b5eaea" rx="0" transform="matrix(.0661 1.03255 -.9766 -.12678 1548.86 -780.02)"/><rect x="1079" y="165" width="8" height="21" fill="#FFBCBC" rx="0" transform="matrix(.96043 .08801 -.38428 1.00598 106.606 -248.573)"/><rect x="1735" y="18" width="10" height="14" fill="#EDF6E5" rx="0" transform="matrix(-.55347 .61905 -.90697 -.79235 2781.405 -849.462)"/><rect x="899" y="484" width="8" height="18" fill="#F38BA0" rx="0" transform="matrix(.65438 1.01626 -.8568 .19754 890.718 -280.108)"/><rect x="1857" y="510" width="9" height="19" fill="#F38BA0" rx="0" transform="matrix(-.52489 .64587 -.9001 -.79759 3439.597 161.314)"/><rect x="1087" y="421" width="9" height="19" fill="#EDF6E5" rx="0" transform="matrix(-.81795 .57436 -.5729 -.82028 2250.49 99.508)"/><rect x="1923" y="1190" width="13" height="36" fill="#EDF6E5" rx="0" transform="matrix(-.00433 .8874 -1.12428 -.5332 3823.373 656.874)"/><rect x="1791" y="261" width="10" height="11" fill="#F38BA0" rx="0" transform="matrix(.80055 .65616 -.6031 .75482 539.507 -1144.472)"/><rect x="1486" y="1347" width="12" height="18" fill="#b5eaea" rx="0" transform="matrix(-.5318 .62942 -.9081 -.80562 3811.85 1826.46)"/><rect x="1913" y="597" width="13" height="25" fill="#b5eaea" rx="0" transform="matrix(1.08273 .61526 -.1885 .81648 247.851 -661.132)"/><rect x="170" y="598" width="13" height="31" fill="#EDF6E5" rx="0" transform="matrix(1.02928 .7328 -.37066 .70766 407.987 84.319)"/><rect x="1139" y="1128" width="10" height="20" fill="#EDF6E5" rx="0" transform="matrix(-.4383 .66618 -.9969 -.76635 3164.034 1449.717)"/><rect x="183" y="1007" width="13" height="27" fill="#EDF6E5" rx="0" transform="matrix(.3407 .95469 -.93676 .3102 1026.552 539.609)"/><rect x="1075" y="1267" width="8" height="21" fill="#F38BA0" rx="0" transform="matrix(.2089 .95236 -.98214 .30944 2044.289 -201.957)"/><rect x="1364" y="868" width="12" height="33" fill="#F38BA0" rx="0" transform="matrix(.72891 .79912 -.7021 .60218 1155.03 -790.769)"/><rect x="186" y="122" width="13" height="21" fill="#F38BA0" rx="0" transform="matrix(-.72103 .5339 -.71912 -.85442 442.993 166.57)"/><rect x="1177" y="1120" width="12" height="17" fill="#EDF6E5" rx="0" transform="matrix(.03499 1.00452 -1.00422 -.25046 2300.104 539.772)"/><rect x="529" y="667" width="7" height="19" fill="#F38BA0" rx="0" transform="matrix(.90212 .35842 -.4399 .93372 303.057 -155.318)"/><rect x="1512" y="829" width="12" height="12" fill="#FFBCBC" rx="0" transform="matrix(-1.01853 .39288 -.14577 -.92558 3078.872 851.91)"/><rect x="1737" y="271" width="11" height="15" fill="#F38BA0" rx="0" transform="matrix(.55527 .8636 -.8243 .5189 970.069 -1156.894)"/><rect x="1247" y="1041" width="12" height="27" fill="#b5eaea" rx="0" transform="matrix(.05497 .96656 -1.01884 .27716 2145.181 -580.552)"/><rect x="967" y="1102" width="8" height="14" fill="#FFBCBC" rx="0" transform="matrix(.18418 1.01674 -.96418 .10686 1699.927 209.626)"/><rect x="275" y="1328" width="9" height="19" fill="#b5eaea" rx="0" transform="matrix(1.0293 .47126 -.1861 .88632 555.16 44.781)"/><rect x="1314" y="1061" width="9" height="11" fill="#EDF6E5" rx="0" transform="matrix(-.36665 .84072 -.95135 -.54597 2979.394 632.487)"/><rect x="1112" y="729" width="13" height="21" fill="#F38BA0" rx="0" transform="matrix(-.64083 .91521 -.79382 -.42677 2361.094 -125.765)"/><rect x="1259" y="906" width="7" height="8" fill="#F38BA0" rx="0" transform="matrix(-.93491 .4232 -.35804 -.90755 2648.78 1267.749)"/><rect x="1647" y="1297" width="12" height="26" fill="#FFBCBC" rx="0" transform="matrix(.4561 .94199 -.89558 .34286 2146.978 -580.656)"/><rect x="702" y="614" width="7" height="11" fill="#FFBCBC" rx="0" transform="matrix(-.18874 .96256 -.95878 -.40858 1359.549 409.222)"/><rect x="338" y="645" width="7" height="8" fill="#FFBCBC" rx="0" transform="matrix(-.95266 .10822 -.17682 -1.0296 651.02 1371.762)"/><rect x="480" y="346" width="10" height="10" fill="#b5eaea" rx="0" transform="matrix(1.05064 .44384 -.09895 .91 101.102 -106.853)"/><rect x="1210" y="858" width="8" height="11" fill="#FFBCBC" rx="0" transform="matrix(.24933 1 -.96051 .15838 1908.07 -679.544)"/><rect x="253" y="1362" width="10" height="23" fill="#F38BA0" rx="0" transform="matrix(-1.0063 -.12307 -.06998 -1.0023 687.626 2818.17)"/><rect x="462" y="1044" width="9" height="13" fill="#b5eaea" rx="0" transform="matrix(.77539 .53513 -.62784 .85638 781.52 -164.329)"/><rect x="75" y="262" width="7" height="10" fill="#F38BA0" rx="0" transform="matrix(-.27306 .92402 -.96632 -.39222 413.235 292.32)"/><rect x="1785" y="1036" width="9" height="17" fill="#b5eaea" rx="0" transform="matrix(-.74217 .79876 -.69268 -.6019 3680.634 212.58)"/><rect x="1095" y="1260" width="8" height="14" fill="#F38BA0" rx="0" transform="matrix(.19888 .90374 -1.0095 .44079 1977.096 -400.2)"/><rect x="206" y="1384" width="7" height="9" fill="#FFBCBC" rx="0" transform="matrix(-1.01046 .21112 .01715 -.99324 326.54 2686.44)"/><rect x="470" y="1100" width="11" height="13" fill="#F38BA0" rx="0" transform="matrix(-.99307 -.07222 -.35438 -1.03275 1535.257 2410.992)"/><rect x="559" y="319" width="11" height="31" fill="#FFBCBC" rx="0" transform="matrix(.95666 .29525 -.25793 .9657 67.25 -75.858)"/><rect x="103" y="38" width="8" height="20" fill="#EDF6E5" rx="0" transform="matrix(-.94123 .16055 -.28592 -1.01367 215.075 104.18)"/><rect x="1526" y="216" width="8" height="20" fill="#F38BA0" rx="0" transform="matrix(-1.00326 -.12678 -.28322 -1.03255 3210.604 1092.05)"/><rect x="808" y="436" width="7" height="8" fill="#F38BA0" rx="0" transform="matrix(-.11913 1.0148 -.98125 -.03544 1365.897 -511.013)"/><rect x="536" y="499" width="12" height="13" fill="#F38BA0" rx="0" transform="matrix(.88992 .74598 -.53923 .67169 449.77 -190.942)"/><rect x="1460" y="504" width="13" height="26" fill="#FFBCBC" rx="0" transform="matrix(-.10398 .98017 -.98644 -.31848 2098.162 -390.13)"/><rect x="992" y="674" width="9" height="26" fill="#FFBCBC" rx="0" transform="matrix(-.99514 -.03524 -.12214 -1.00921 2086.503 1555.497)"/><rect x="435" y="1359" width="11" height="22" fill="#FFBCBC" rx="0" transform="matrix(-.342 .93372 -.9397 -.35842 1926.113 1442.045)"/><rect x="860" y="133" width="11" height="21" fill="#b5eaea" rx="0" transform="matrix(.74443 .89934 -.74884 .43864 381.77 -667.601)"/><rect x="390" y="554" width="8" height="23" fill="#EDF6E5" rx="0" transform="matrix(-.91838 .31287 -.36975 -.96291 909.999 1049.16)"/><rect x="183" y="1322" width="13" height="38" fill="#F38BA0" rx="0" transform="matrix(-.81944 .2018 -.73968 -1.03819 1661.359 2760.22)"/><rect x="1509" y="205" width="13" height="34" fill="#F38BA0" rx="0" transform="matrix(-.30988 .98054 -.95398 -.20842 2192.853 -1323.707)"/><rect x="1111" y="471" width="8" height="11" fill="#F38BA0" rx="0" transform="matrix(-.43167 .7213 -.92348 -.7735 2081.446 424.751)"/><rect x="584" y="1176" width="9" height="24" fill="#b5eaea" rx="0" transform="matrix(.14513 .92945 -1.01727 .37552 1509.389 153.749)"/><rect x="139" y="298" width="9" height="18" fill="#F38BA0" rx="0" transform="matrix(-.15692 .99772 -.99132 -.06977 449.06 182.741)"/><rect x="770" y="31" width="12" height="31" fill="#EDF6E5" rx="0" transform="matrix(-.72164 .75655 -.69447 -.65766 1352.327 -455.74)"/><rect x="1697" y="1136" width="13" height="17" fill="#EDF6E5" rx="0" transform="matrix(.92092 .42268 -.39091 .90645 602.605 -583.232)"/><rect x="955" y="1335" width="12" height="23" fill="#F38BA0" rx="0" transform="matrix(-.93138 .37552 -.35773 -.92945 2404.778 2169.926)"/><rect x="810" y="370" width="8" height="23" fill="#b5eaea" rx="0" transform="matrix(.0522 .96651 -1.04863 -.25898 1289.112 -278.018)"/><rect x="1755" y="725" width="13" height="16" fill="#b5eaea" rx="0" transform="matrix(-.36885 .769 -.95645 -.7171 3203.579 476.4)"/><rect x="446" y="1045" width="12" height="13" fill="#F38BA0" rx="0" transform="matrix(.3407 .92275 -.9391 .39169 1152.482 254.166)"/><rect x="1627" y="497" width="8" height="16" fill="#b5eaea" rx="0" transform="matrix(.25067 .8851 -.99653 .47062 1656.47 -1290.317)"/><rect x="226" y="756" width="12" height="23" fill="#b5eaea" rx="0" transform="matrix(-1.01357 -.27064 -.08783 -1.01006 578.503 1676.44)"/><rect x="1238" y="681" width="13" height="31" fill="#F38BA0" rx="0" transform="matrix(-.81701 .32801 -.67589 -.95262 2943.78 1104.592)"/><rect x="557" y="619" width="8" height="10" fill="#EDF6E5" rx="0" transform="matrix(.98586 .24225 -.17385 .97163 127.822 -88.8)"/><rect x="1192" y="525" width="7" height="9" fill="#b5eaea" rx="0" transform="matrix(-.43622 .77726 -.93332 -.62942 2338.253 -45.576)"/><rect x="1657" y="26" width="13" height="14" fill="#F38BA0" rx="0" transform="matrix(-.6671 .66546 -.7077 -.79307 2729.295 -602.092)"/><rect x="803" y="107" width="9" height="24" fill="#F38BA0" rx="0" transform="matrix(-.05726 .9479 -1.03183 -.38298 1012.212 -429.214)"/><rect x="469" y="84" width="8" height="16" fill="#F38BA0" rx="0" transform="matrix(-.40822 .94328 -.91155 -.34333 728.825 -281.204)"/><rect x="923" y="1369" width="7" height="8" fill="#EDF6E5" rx="0" transform="matrix(.53083 .87321 -.82625 .52468 1323.138 23.681)"/><rect x="1376" y="122" width="7" height="14" fill="#F38BA0" rx="0" transform="matrix(.08749 1 -.98457 .17633 1375.824 -1516.49)"/><rect x="692" y="371" width="9" height="21" fill="#b5eaea" rx="0" transform="matrix(.9113 .51512 -.42466 .8573 269.138 -316.495)"/><rect x="1855" y="1069" width="9" height="17" fill="#b5eaea" rx="0" transform="matrix(-.24434 .78683 -1.07305 -.63716 3915.864 595.445)"/><rect x="319" y="779" width="7" height="8" fill="#FFBCBC" rx="0" transform="matrix(-.5888 .48182 -.96808 -.90617 1565.641 1411.601)"/><rect x="814" y="119" width="7" height="8" fill="#EDF6E5" rx="0" transform="matrix(.64018 .96828 -.86122 .25945 458.62 -643.32)"/><rect x="1271" y="803" width="10" height="24" fill="#F38BA0" rx="0" transform="matrix(1.10115 .42767 .13497 .96056 67.507 -98.962)"/><rect x="74" y="566" width="12" height="16" fill="#FFBCBC" rx="0" transform="matrix(.19164 .99269 -.98043 .13951 697.23 408.91)"/><rect x="183" y="375" width="8" height="14" fill="#b5eaea" rx="0" transform="matrix(.99042 .15643 -.1392 .98769 61.632 -24.55)"/><rect x="690" y="1046" width="9" height="22" fill="#b5eaea" rx="0" transform="matrix(.50201 .98054 -.91314 .20842 1566.286 204.283)"/><rect x="1401" y="324" width="7" height="17" fill="#EDF6E5" rx="0" transform="matrix(.64363 .70808 -.76864 .70808 699.02 -823.823)"/><rect x="558" y="1124" width="13" height="27" fill="#EDF6E5" rx="0" transform="matrix(1.01036 .65857 -.35617 .7576 762.158 -46.634)"/><rect x="1171" y="45" width="10" height="10" fill="#FFBCBC" rx="0" transform="matrix(.70551 .62171 -.70545 .79575 379.58 -886.197)"/><rect x="934" y="906" width="8" height="12" fill="#F38BA0" rx="0" transform="matrix(.86603 .73205 -.5 .73205 581.668 -190.958)"/><rect x="388" y="1350" width="13" height="20" fill="#F38BA0" rx="0" transform="matrix(-.02876 .90977 -1.08577 -.42423 2362.66 1612.566)"/><rect x="1934" y="518" width="11" height="12" fill="#b5eaea" rx="0" transform="matrix(.49755 .99034 -.904 .2105 1565.01 -1199.882)"/><rect x="1814" y="1246" width="8" height="8" fill="#b5eaea" rx="0" transform="matrix(.96238 .19268 -.23884 .99127 453.96 -594.896)"/><rect x="290" y="718" width="8" height="18" fill="#F38BA0" rx="0" transform="matrix(-.90138 .22509 -.53839 -.97496 1161.82 1379.89)"/><rect x="951" y="209" width="9" height="21" fill="#EDF6E5" rx="0" transform="matrix(-1.00009 -.0719 -.39218 -1.0281 2094.462 752.094)"/><rect x="1648" y="22" width="10" height="24" fill="#FFBCBC" rx="0" transform="matrix(.13848 .97163 -.99467 .24225 1438.804 -1493.707)"/><rect x="1231" y="1134" width="7" height="14" fill="#b5eaea" rx="0" transform="matrix(-.10944 1.01626 -.96273 -.19754 2208.562 442.61)"/><rect x="1775" y="68" width="13" height="29" fill="#F38BA0" rx="0" transform="matrix(.90047 .59511 -.44096 .8191 148.817 -1327.43)"/><rect x="1568" y="356" width="12" height="16" fill="#FFBCBC" rx="0" transform="matrix(.7756 .51504 -.6508 .85717 532.455 -758.679)"/><rect x="1212" y="413" width="13" height="22" fill="#F38BA0" rx="0" transform="matrix(.56104 .71802 -.83169 .71802 883.852 -970.194)"/><rect x="818" y="596" width="8" height="17" fill="#b5eaea" rx="0" transform="matrix(.33921 1.00046 -.99362 .01746 1325.38 -199.727)"/><rect x="632" y="46" width="12" height="18" fill="#F38BA0" rx="0" transform="matrix(.5618 .91311 -.83318 .4258 330.049 -472.649)"/><rect x="928" y="1063" width="13" height="25" fill="#EDF6E5" rx="0" transform="matrix(.9994 0 -.19338 1.00061 43.376 -33.289)"/><rect x="1589" y="1023" width="8" height="20" fill="#F38BA0" rx="0" transform="matrix(-.41974 .94893 -.90105 -.34538 3234.833 -345.744)"/><rect x="1785" y="1029" width="8" height="10" fill="#FFBCBC" rx="0" transform="matrix(.92902 .61147 -.35671 .84162 468.82 -417.172)"/><rect x="1441" y="1004" width="10" height="19" fill="#b5eaea" rx="0" transform="matrix(.99944 .08728 -.03433 .99756 134.155 -199.51)"/><rect x="932" y="858" width="11" height="18" fill="#EDF6E5" rx="0" transform="matrix(-.90276 .3102 -.44536 -.95469 2351.186 1321.885)"/><rect x="774" y="791" width="11" height="30" fill="#FFBCBC" rx="0" transform="matrix(-.92556 .60932 -.41293 -.8086 1786.064 859.301)"/><rect x="1383" y="556" width="10" height="11" fill="#EDF6E5" rx="0" transform="matrix(-.96923 .19186 -.22587 -.98703 2918.531 703.533)"/><rect x="668" y="175" width="9" height="22" fill="#F38BA0" rx="0" transform="matrix(-.67092 .45604 -.81722 -.93501 1335.696 246.064)"/><rect x="1891" y="1227" width="9" height="11" fill="#FFBCBC" rx="0" transform="matrix(-.33506 .84857 -.9691 -.53024 3977.447 343.76)"/><rect x="895" y="160" width="11" height="11" fill="#b5eaea" rx="0" transform="matrix(-.93922 .22581 -.36028 -.9781 1818.698 202.816)"/><rect x="1432" y="158" width="10" height="27" fill="#b5eaea" rx="0" transform="matrix(-.2952 .90755 -.9642 -.4232 2048.166 -984.763)"/><rect x="664" y="1276" width="13" height="16" fill="#F38BA0" rx="0" transform="matrix(-.93992 .09067 -.2859 -1.03634 1564.582 2746.131)"/><rect x="1479" y="903" width="8" height="8" fill="#F38BA0" rx="0" transform="matrix(.59693 .8253 -.7937 .57788 1222.365 -658.977)"/><rect x="1274" y="1220" width="7" height="14" fill="#EDF6E5" rx="0" transform="matrix(.96833 .31378 -.2067 .96573 192.537 -133.55)"/><rect x="1925" y="629" width="13" height="29" fill="#EDF6E5" rx="0" transform="matrix(.455 .95262 -.89307 .32801 1642.73 -1170.402)"/><rect x="1701" y="787" width="12" height="31" fill="#F38BA0" rx="0" transform="matrix(-.90785 .461 -.38746 -.90475 3620.355 440.656)"/><rect x="1030" y="1350" width="10" height="20" fill="#b5eaea" rx="0" transform="matrix(.9167 .76213 -.51524 .6625 1106.931 -184.35)"/><rect x="500" y="726" width="12" height="13" fill="#F38BA0" rx="0" transform="matrix(-.65606 .8121 -.75471 -.59003 1390.79 709.502)"/><rect x="1527" y="416" width="9" height="12" fill="#EDF6E5" rx="0" transform="matrix(.43726 .7546 -.93147 .67945 1236.253 -1290.458)"/><rect x="95" y="810" width="11" height="32" fill="#F38BA0" rx="0" transform="matrix(-.28005 1.01231 -.98295 -.01767 855.419 722.94)"/><rect x="1695" y="797" width="8" height="13" fill="#F38BA0" rx="0" transform="matrix(-.83006 .51512 -.55986 -.8573 3588.211 646.812)"/><rect x="132" y="215" width="11" height="16" fill="#FFBCBC" rx="0" transform="matrix(-.03499 .9927 -1.01165 .12189 336.906 56.923)"/><rect x="1365" y="163" width="9" height="15" fill="#FFBCBC" rx="0" transform="matrix(.40618 .92177 -.91246 .39127 960.347 -1086.8)"/><rect x="1004" y="332" width="12" height="22" fill="#FFBCBC" rx="0" transform="matrix(-.19218 .99924 -.9907 -.05237 1511.565 -683.538)"/><rect x="99" y="397" width="10" height="11" fill="#EDF6E5" rx="0" transform="matrix(.59437 .88223 -.79033 .50936 330.733 125.946)"/><rect x="665" y="664" width="7" height="20" fill="#FFBCBC" rx="0" transform="matrix(1.05471 .43897 -.11557 .90003 258.09 -191.037)"/><rect x="1427" y="460" width="11" height="21" fill="#EDF6E5" rx="0" transform="matrix(1.0976 .44166 -.01376 .90554 89.24 -412.352)"/><rect x="1453" y="943" width="12" height="30" fill="#F38BA0" rx="0" transform="matrix(-.2815 1.00367 -.99143 -.01752 2673.09 -617.213)"/><rect x="754" y="803" width="13" height="22" fill="#EDF6E5" rx="0" transform="matrix(-.81537 .45604 -.52104 -.93501 1641.254 1446.356)"/><rect x="1724" y="579" width="10" height="18" fill="#b5eaea" rx="0" transform="matrix(.66913 .80169 -.74314 .60411 1009.042 -1002.066)"/><rect x="1897" y="554" width="9" height="17" fill="#b5eaea" rx="0" transform="matrix(-.98934 -.01767 -.08612 -1.01231 3785.914 1466.692)"/><rect x="866" y="907" width="10" height="12" fill="#FFBCBC" rx="0" transform="matrix(.64633 .69466 -.77026 .71934 915.339 -348.805)"/><rect x="1940" y="1025" width="10" height="22" fill="#b5eaea" rx="0" transform="matrix(.03492 1 -.99571 .12278 2936.475 -1275.02)"/><rect x="1954" y="896" width="8" height="17" fill="#F38BA0" rx="0" transform="matrix(1.02066 .2082 -.0013 .97949 120.227 -286.484)"/><rect x="1556" y="257" width="9" height="15" fill="#F38BA0" rx="0" transform="matrix(.55256 .96886 -.8526 .3148 963.453 -1027.336)"/><rect x="1650" y="886" width="7" height="10" fill="#EDF6E5" rx="0" transform="matrix(-.95954 .12194 -.38572 -.99315 3802.804 1632.005)"/><rect x="1003" y="589" width="13" height="13" fill="#F38BA0" rx="0" transform="matrix(.80475 .69508 -.60534 .71978 646.32 -570.066)"/><rect x="296" y="164" width="13" height="28" fill="#EDF6E5" rx="0" transform="matrix(.20843 .9614 -.98037 .27568 404.903 -167.177)"/><rect x="702" y="624" width="8" height="16" fill="#FFBCBC" rx="0" transform="matrix(-.9013 .24251 -.50856 -.97267 1864.349 1026.142)"/><rect x="1136" y="1373" width="9" height="17" fill="#FFBCBC" rx="0" transform="matrix(.98541 .27835 -.15612 .9707 205.404 -116.7)"/><rect x="1080" y="1264" width="12" height="34" fill="#b5eaea" rx="0" transform="matrix(.32103 .84187 -.97935 .54672 1782.79 -428.636)"/><rect x="111" y="279" width="8" height="15" fill="#EDF6E5" rx="0" transform="matrix(.14634 .9848 -1.04123 -.17365 489.573 222.997)"/><rect x="469" y="370" width="8" height="12" fill="#b5eaea" rx="0" transform="matrix(-.63387 .67282 -.7823 -.74724 1089.278 388.434)"/><rect x="566" y="1337" width="8" height="16" fill="#FFBCBC" rx="0" transform="matrix(.99773 .0175 .00053 1.00229 114.765 -52.91)"/><rect x="410" y="1266" width="7" height="20" fill="#EDF6E5" rx="0" transform="matrix(-.77327 .43897 -.6926 -.90003 1916.594 2264.59)"/><rect x="718" y="659" width="13" height="16" fill="#b5eaea" rx="0" transform="matrix(-.6903 .60411 -.73927 -.80169 1781.61 827.43)"/><rect x="1500" y="1252" width="13" height="28" fill="#EDF6E5" rx="0" transform="matrix(.29345 .9757 -.95715 .22526 2421.92 -568.034)"/><rect x="753" y="692" width="8" height="14" fill="#b5eaea" rx="0" transform="matrix(-.8262 .59102 -.5548 -.81347 1660.827 899.777)"/><rect x="1903" y="820" width="10" height="11" fill="#b5eaea" rx="0" transform="matrix(-.28825 .9323 -.95616 -.37667 3368.78 -842.91)"/><rect x="774" y="466" width="10" height="29" fill="#F38BA0" rx="0" transform="matrix(-.64858 .5568 -.79722 -.8574 1735.219 624.313)"/><rect x="1213" y="930" width="10" height="15" fill="#F38BA0" rx="0" transform="matrix(-.44726 .80846 -.87473 -.65468 2492.844 915.81)"/><rect x="1083" y="238" width="9" height="22" fill="#FFBCBC" rx="0" transform="matrix(.26538 1.00229 -1.00235 -.0175 1117.575 -760.588)"/><rect x="1902" y="705" width="13" height="20" fill="#EDF6E5" rx="0" transform="matrix(.62057 .98652 -.8704 .22776 1600.107 -1028.333)"/><rect x="283" y="210" width="9" height="16" fill="#b5eaea" rx="0" transform="matrix(-.67586 .88811 -.75135 -.49229 636.836 19.293)"/><rect x="1128" y="446" width="11" height="11" fill="#FFBCBC" rx="0" transform="matrix(.4719 .90768 -.86126 .46249 881.055 -565.842)"/><rect x="244" y="983" width="13" height="23" fill="#b5eaea" rx="0" transform="matrix(-.65162 .57788 -.79985 -.8253 1371.562 1701.262)"/><rect x="669" y="365" width="13" height="35" fill="#b5eaea" rx="0" transform="matrix(.52166 1.0088 -.91796 .14178 774.112 -221.872)"/><rect x="495" y="837" width="9" height="12" fill="#FFBCBC" rx="0" transform="matrix(.63144 .94798 -.81249 .3639 983.346 150.793)"/><rect x="1552" y="524" width="10" height="19" fill="#b5eaea" rx="0" transform="matrix(-.9112 .16448 -.32648 -1.03852 3022.296 1337.346)"/><rect x="616" y="1245" width="7" height="18" fill="#FFBCBC" rx="0" transform="matrix(.87786 .48748 -.46767 .87944 546.722 -85.696)"/><rect x="795" y="1209" width="12" height="14" fill="#b5eaea" rx="0" transform="matrix(-.9159 .55 -.40784 -.84691 2011.31 1692.73)"/><rect x="1044" y="1057" width="11" height="24" fill="#EDF6E5" rx="0" transform="matrix(.62426 .80463 -.77239 .60633 1115.22 -294.772)"/><rect x="525" y="916" width="7" height="12" fill="#EDF6E5" rx="0" transform="matrix(.65144 1.00293 -.8939 .15885 1338.25 338.685)"/><rect x="851" y="945" width="11" height="19" fill="#b5eaea" rx="0" transform="matrix(.53044 1.00745 -.8895 .19583 1392.687 102.442)"/><rect x="1805" y="1064" width="13" height="27" fill="#F38BA0" rx="0" transform="matrix(-.94974 .37604 -.30862 -.93073 3880.533 1240.68)"/><rect x="819" y="230" width="10" height="16" fill="#FFBCBC" rx="0" transform="matrix(.36785 .8322 -.9535 .56133 724.509 -653.423)"/><rect x="55" y="606" width="11" height="26" fill="#F38BA0" rx="0" transform="matrix(-.37973 .7735 -.93873 -.7213 686.893 1039.517)"/><rect x="1937" y="1196" width="7" height="7" fill="#EDF6E5" rx="0" transform="matrix(-.03642 .83974 -1.1634 -.63279 4036.806 959.527)"/><rect x="237" y="1320" width="8" height="19" fill="#b5eaea" rx="0" transform="matrix(.03868 .91562 -1.11103 -.44658 2155.99 1749.405)"/><rect x="1710" y="1227" width="8" height="16" fill="#F38BA0" rx="0" transform="matrix(-.73588 .58814 -.6874 -.80951 4010.379 1166.813)"/><rect x="1443" y="1321" width="8" height="22" fill="#F38BA0" rx="0" transform="matrix(.84187 .46947 -.54672 .88295 840.504 -523.412)"/><rect x="1892" y="1160" width="7" height="9" fill="#F38BA0" rx="0" transform="matrix(.7383 .59511 -.66418 .8191 1314.793 -1217.596)"/><rect x="537" y="127" width="8" height="17" fill="#F38BA0" rx="0" transform="matrix(.5515 .9599 -.81896 .38782 338.904 -291.39)"/><rect x="1399" y="819" width="11" height="19" fill="#EDF6E5" rx="0" transform="matrix(-.83365 .64289 -.56199 -.76616 2936.224 584.847)"/><rect x="1365" y="237" width="8" height="17" fill="#FFBCBC" rx="0" transform="matrix(1.02885 .27669 -.02611 .96493 10.204 -489.952)"/><rect x="893" y="649" width="10" height="24" fill="#b5eaea" rx="0" transform="matrix(-.91775 .24565 -.38989 -.98526 2143.176 933.32)"/><rect x="1247" y="32" width="9" height="12" fill="#EDF6E5" rx="0" transform="matrix(.67783 .9604 -.82099 .31205 487.726 -999.916)"/><rect x="184" y="612" width="13" height="30" fill="#FFBCBC" rx="0" transform="matrix(.85847 .79912 -.60447 .60218 587.664 103.852)"/><rect x="1393" y="189" width="12" height="20" fill="#b5eaea" rx="0" transform="matrix(.2844 1.01472 -1.02041 -.1246 1300.674 -898.433)"/><rect x="149" y="333" width="8" height="11" fill="#F38BA0" rx="0" transform="matrix(-.53345 .82936 -.83222 -.58073 577.412 383.95)"/><rect x="867" y="1050" width="13" height="38" fill="#F38BA0" rx="0" transform="matrix(.74326 .682 -.66923 .73135 958.333 -308.543)"/><rect x="1838" y="1386" width="13" height="34" fill="#F38BA0" rx="0" transform="matrix(.32382 .92955 -.93833 .39457 2643.679 -1124.368)"/><rect x="369" y="839" width="8" height="23" fill="#b5eaea" rx="0" transform="matrix(-.3847 .8977 -.91795 -.4574 1453.625 858.879)"/><rect x="1395" y="176" width="13" height="25" fill="#FFBCBC" rx="0" transform="matrix(.70303 .81096 -.70334 .6111 533.564 -816.124)"/><rect x="1868" y="921" width="7" height="7" fill="#F38BA0" rx="0" transform="matrix(.1733 .98354 -.9799 .20906 2503.975 -1306.162)"/><rect x="451" y="1248" width="11" height="16" fill="#F38BA0" rx="0" transform="matrix(.75782 .8407 -.65886 .58866 961.841 238.25)"/><rect x="1163" y="932" width="10" height="25" fill="#FFBCBC" rx="0" transform="matrix(-.77593 .46093 -.57862 -.94505 2458.232 1678.237)"/><rect x="1852" y="45" width="11" height="32" fill="#EDF6E5" rx="0" transform="matrix(.1339 .99269 -1.02619 -.13951 1647.662 -1904.293)"/><rect x="558" y="912" width="8" height="8" fill="#b5eaea" rx="0" transform="matrix(.47157 .92177 -.8847 .39127 1231.964 10.112)"/><rect x="1365" y="172" width="9" height="20" fill="#EDF6E5" rx="0" transform="matrix(-.58954 .70332 -.81135 -.7283 2331.501 -431.734)"/><rect x="1762" y="206" width="8" height="16" fill="#FFBCBC" rx="0" transform="matrix(.87462 .63903 -.48481 .78913 325.17 -772.006)"/><rect x="195" y="158" width="12" height="18" fill="#FFBCBC" rx="0" transform="matrix(.85771 .53984 -.47978 .86392 79.763 -46.712)"/><rect x="1629" y="451" width="12" height="30" fill="#b5eaea" rx="0" transform="matrix(-.1871 .93073 -.99883 -.37604 2498.986 -1023.547)"/><rect x="1802" y="974" width="8" height="19" fill="#FFBCBC" rx="0" transform="matrix(-.21307 .82402 -1.0471 -.6438 3491.405 680.646)"/><rect x="1208" y="870" width="10" height="20" fill="#F38BA0" rx="0" transform="matrix(-.65024 .69252 -.7467 -.74264 2582.35 907.378)"/><rect x="1460" y="444" width="10" height="27" fill="#EDF6E5" rx="0" transform="matrix(-.4604 .81697 -.88954 -.59356 2618.593 -673.695)"/><rect x="1621" y="161" width="7" height="11" fill="#F38BA0" rx="0" transform="matrix(-.7475 .59381 -.61651 -.84805 2835.34 -221.66)"/><rect x="1586" y="1145" width="10" height="24" fill="#F38BA0" rx="0" transform="matrix(.67251 .85216 -.70258 .5967 1135.844 -432.952)"/><rect x="1048" y="1260" width="10" height="13" fill="#EDF6E5" rx="0" transform="matrix(-.67154 .4574 -.8683 -.8977 3340.44 2051.084)"/><rect x="538" y="465" width="11" height="22" fill="#F38BA0" rx="0" transform="matrix(-.77785 .39222 -.71706 -.92402 1447.869 750.21)"/><rect x="1487" y="628" width="13" height="24" fill="#EDF6E5" rx="0" transform="matrix(-1.01745 .26205 -.01897 -.97797 2989.9 637.987)"/><rect x="92" y="148" width="8" height="12" fill="#EDF6E5" rx="0" transform="matrix(.95984 .486 -.32604 .87676 90.788 -34.389)"/><rect x="1073" y="1054" width="7" height="15" fill="#b5eaea" rx="0" transform="matrix(1.08814 .39676 .04307 .9347 218.207 -167.984)"/><rect x="770" y="916" width="13" height="31" fill="#F38BA0" rx="0" transform="matrix(-.37505 .79393 -.96654 -.62028 2149.116 988.152)"/><rect x="809" y="21" width="11" height="15" fill="#F38BA0" rx="0" transform="matrix(-.99622 .12194 -.08699 -.99315 1624.415 -14.075)"/><rect x="1792" y="585" width="8" height="15" fill="#FFBCBC" rx="0" transform="matrix(-.05928 .93715 -1.04431 -.35974 2694.288 -720.341)"/><rect x="1615" y="318" width="12" height="24" fill="#b5eaea" rx="0" transform="matrix(1.01725 .43897 -.19237 .90003 115.14 -763.537)"/><rect x="86" y="1352" width="10" height="28" fill="#EDF6E5" rx="0" transform="matrix(.26742 1.02849 -1.02915 -.21861 1693.515 1600.599)"/><rect x="563" y="34" width="8" height="18" fill="#F38BA0" rx="0" transform="matrix(-.51573 .90099 -.85835 -.43944 896.268 -488.613)"/><rect x="900" y="428" width="8" height="12" fill="#b5eaea" rx="0" transform="matrix(-.31186 .98904 -.96168 -.15665 1562.66 -439.486)"/><rect x="1869" y="667" width="11" height="27" fill="#EDF6E5" rx="0" transform="matrix(.87106 .61801 -.50318 .79102 628.374 -852.258)"/><rect x="1038" y="661" width="7" height="19" fill="#EDF6E5" rx="0" transform="matrix(-.90344 .19507 -.47853 -1.00356 2381.315 1361.596)"/><rect x="605" y="140" width="9" height="12" fill="#b5eaea" rx="0" transform="matrix(-.11086 .93415 -1.0257 -.37742 861.802 -293.422)"/><rect x="1920" y="149" width="10" height="28" fill="#FFBCBC" rx="0" transform="matrix(-1.02285 -.10822 -.49097 -1.0296 4194.57 1054.943)"/><rect x="1433" y="416" width="12" height="29" fill="#b5eaea" rx="0" transform="matrix(.99246 .13994 -.08421 .99572 91.334 -350.777)"/><rect x="373" y="643" width="13" height="14" fill="#b5eaea" rx="0" transform="matrix(.99218 -.08764 .07018 1.00168 10.726 -7.723)"/><rect x="22" y="878" width="7" height="8" fill="#F38BA0" rx="0" transform="matrix(.38843 .91704 -.91753 .40829 731.923 500.735)"/><rect x="979" y="1250" width="7" height="9" fill="#FFBCBC" rx="0" transform="matrix(-.33958 .82366 -.97631 -.57674 2780.33 1272.03)"/><rect x="151" y="51" width="10" height="24" fill="#FFBCBC" rx="0" transform="matrix(-.87147 .20995 -.66296 -.98776 361.31 114.4)"/><rect x="661" y="216" width="11" height="26" fill="#b5eaea" rx="0" transform="matrix(.96477 .6821 -.43146 .73147 200.47 -381.493)"/><rect x="749" y="451" width="7" height="7" fill="#EDF6E5" rx="0" transform="matrix(.82341 .47012 -.57852 .88416 308.724 -261.676)"/><rect x="926" y="1286" width="11" height="21" fill="#F38BA0" rx="0" transform="matrix(.62318 .81697 -.77127 .59356 1226.074 -103.144)"/><rect x="52" y="513" width="7" height="13" fill="#FFBCBC" rx="0" transform="matrix(.15643 1.02094 -.98769 -.0535 559.922 502.43)"/><rect x="1217" y="257" width="10" height="27" fill="#FFBCBC" rx="0" transform="matrix(.92112 .34223 -.39128 .94027 174.839 -359.372)"/><rect x="94" y="10" width="9" height="21" fill="#b5eaea" rx="0" transform="matrix(.38714 1.04505 -.9704 -.0365 86.475 -51.575)"/><rect x="13" y="387" width="10" height="14" fill="#b5eaea" rx="0" transform="matrix(-.34841 .71316 -1.02858 -.76477 514.45 687.986)"/><rect x="1268" y="920" width="13" height="16" fill="#EDF6E5" rx="0" transform="matrix(.1411 1.00107 -.99154 .05246 2147.68 -485.67)"/><rect x="1743" y="428" width="11" height="11" fill="#F38BA0" rx="0" transform="matrix(-.9397 .17633 -.34202 -1 3539.818 867)"/><rect x="716" y="246" width="13" height="32" fill="#b5eaea" rx="0" transform="matrix(1.01349 .22776 -.00077 .98652 16.778 -46.587)"/><rect x="395" y="198" width="10" height="25" fill="#EDF6E5" rx="0" transform="matrix(.97736 .19224 -.1737 .989 18.335 -25.467)"/><rect x="603" y="1248" width="7" height="19" fill="#EDF6E5" rx="0" transform="matrix(-.76144 .28823 -.81398 -1.00518 2478.52 2532.131)"/><rect x="737" y="380" width="8" height="21" fill="#EDF6E5" rx="0" transform="matrix(1.00063 -.0351 -.15767 1.0049 33.751 -53.791)"/><rect x="1379" y="408" width="13" height="38" fill="#b5eaea" rx="0" transform="matrix(-.32736 .97163 -.94758 -.24225 2173.462 -743.136)"/><rect x="1225" y="750" width="8" height="22" fill="#FFBCBC" rx="0" transform="matrix(-.33683 .89171 -.91905 -.5358 2244.955 425.237)"/><rect x="666" y="470" width="12" height="19" fill="#FFBCBC" rx="0" transform="matrix(-.8829 .29242 -.53192 -.95645 1645.708 729.884)"/><rect x="324" y="933" width="11" height="19" fill="#FFBCBC" rx="0" transform="matrix(.61248 .86785 -.78425 .52146 832.112 217.256)"/><rect x="476" y="495" width="11" height="14" fill="#FFBCBC" rx="0" transform="matrix(-.81093 .39676 -.61 -.9347 1219.221 865.084)"/><rect x="1510" y="950" width="9" height="16" fill="#EDF6E5" rx="0" transform="matrix(.95336 .37829 -.28384 .9363 514.586 -724.738)"/><rect x="1475" y="603" width="11" height="15" fill="#F38BA0" rx="0" transform="matrix(1.06672 .47826 -.08471 .89947 160.323 -358.91)"/><rect x="1213" y="883" width="11" height="14" fill="#EDF6E5" rx="0" transform="matrix(.2104 1.01185 -.99564 -.03533 1943.001 -118.498)"/><rect x="1783" y="938" width="9" height="12" fill="#b5eaea" rx="0" transform="matrix(-.39502 .84329 -.9293 -.54764 3450.01 141.464)"/><rect x="1291" y="707" width="11" height="28" fill="#F38BA0" rx="0" transform="matrix(.37408 .90755 -.92743 .4232 1397.254 -692.82)"/><rect x="663" y="762" width="7" height="9" fill="#b5eaea" rx="0" transform="matrix(.67474 .96573 -.81625 .31378 1030.344 -.151)"/><rect x="1538" y="1284" width="13" height="34" fill="#EDF6E5" rx="0" transform="matrix(-.58277 .79783 -.79808 -.62334 3293.118 1124.33)"/><rect x="1368" y="1345" width="11" height="18" fill="#FFBCBC" rx="0" transform="matrix(.7455 .81096 -.67133 .6111 1286.388 -345.09)"/><rect x="588" y="1274" width="12" height="26" fill="#F38BA0" rx="0" transform="matrix(.15487 1.0292 -.97974 -.05394 1712.823 893.174)"/><rect x="798" y="426" width="12" height="14" fill="#EDF6E5" rx="0" transform="matrix(1.02632 .41073 -.12952 .92252 121.403 -183.688)"/><rect x="873" y="1332" width="9" height="26" fill="#FFBCBC" rx="0" transform="matrix(.98529 -.03544 .00345 1.0148 175.553 -143.547)"/><rect x="1941" y="514" width="10" height="17" fill="#FFBCBC" rx="0" transform="matrix(-.48133 .81347 -.8796 -.59102 3415.655 -956.242)"/><rect x="1536" y="468" width="10" height="21" fill="#F38BA0" rx="0" transform="matrix(-.78298 .52992 -.63405 -.84805 3109.72 67.685)"/><rect x="1315" y="1233" width="13" height="22" fill="#FFBCBC" rx="0" transform="matrix(-.2596 1.01295 -.96906 -.07083 2852.428 -239.518)"/><rect x="1799" y="17" width="11" height="32" fill="#F38BA0" rx="0" transform="matrix(.31517 .9742 -.93012 .29784 1205.683 -1384.02)"/><rect x="248" y="581" width="9" height="18" fill="#FFBCBC" rx="0" transform="matrix(.70754 .682 -.70754 .73135 470.69 -13.703)"/><rect x="916" y="554" width="12" height="26" fill="#FFBCBC" rx="0" transform="matrix(-.95687 .5201 -.3302 -.8656 1960.875 448.68)"/><rect x="1189" y="846" width="13" height="16" fill="#F38BA0" rx="0" transform="matrix(.92107 .7546 -.49586 .67945 705.576 -417.59)"/><rect x="72" y="960" width="8" height="16" fill="#F38BA0" rx="0" transform="matrix(-.1834 .97542 -.97606 -.26136 1238.248 1136.186)"/><rect x="1863" y="1004" width="12" height="25" fill="#F38BA0" rx="0" transform="matrix(.7858 1.02119 -.82651 .1985 1744.913 -557.944)"/><rect x="1127" y="864" width="12" height="19" fill="#EDF6E5" rx="0" transform="matrix(1.07292 .42914 -.02937 .92029 210.628 -216.807)"/><rect x="322" y="1149" width="9" height="16" fill="#EDF6E5" rx="0" transform="matrix(-.36674 .91521 -.92163 -.42677 1728.54 1306.07)"/><rect x="1411" y="1385" width="10" height="23" fill="#b5eaea" rx="0" transform="matrix(.27487 1.00261 -.95876 .1409 2337.406 4.296)"/><rect x="1984" y="1303" width="13" height="33" fill="#FFBCBC" rx="0" transform="matrix(-.07526 .93415 -1.0416 -.35859 3886.89 2.74)"/><rect x="433" y="1105" width="11" height="31" fill="#b5eaea" rx="0" transform="matrix(.53846 .70537 -.8601 .73044 1093.174 -84.58)"/><rect x="949" y="907" width="8" height="18" fill="#FFBCBC" rx="0" transform="matrix(.10232 1.03255 -.98104 -.12678 1691.797 321.384)"/><rect x="168" y="351" width="8" height="11" fill="#b5eaea" rx="0" transform="matrix(.56799 .9723 -.84393 .31592 402.654 113.198)"/><rect x="325" y="991" width="9" height="15" fill="#EDF6E5" rx="0" transform="matrix(.88223 .65606 -.50936 .75471 741.487 28.751)"/><rect x="802" y="769" width="12" height="21" fill="#b5eaea" rx="0" transform="matrix(1.01402 .1573 .04481 .99313 166.098 -206.663)"/><rect x="358" y="1355" width="11" height="23" fill="#F38BA0" rx="0" transform="matrix(.65394 .60773 -.77767 .80648 1073.39 -7.557)"/><rect x="966" y="453" width="8" height="13" fill="#FFBCBC" rx="0" transform="matrix(1.09398 .44658 .00373 .91562 92.951 -205.856)"/><rect x="282" y="556" width="11" height="12" fill="#FFBCBC" rx="0" transform="matrix(.156 .9723 -1.07917 -.31592 1016.107 521.12)"/><rect x="280" y="280" width="11" height="25" fill="#b5eaea" rx="0" transform="matrix(-.99493 -.05332 -.22818 -1.01732 666.74 660.783)"/><rect x="839" y="647" width="12" height="13" fill="#F38BA0" rx="0" transform="matrix(.83658 .36189 -.5839 .94276 463.46 -387.144)"/><rect x="1372" y="391" width="8" height="17" fill="#b5eaea" rx="0" transform="matrix(.8706 .4565 -.482 .89591 388.444 -731.173)"/><rect x="208" y="1339" width="10" height="24" fill="#F38BA0" rx="0" transform="matrix(1.08111 .70948 -.25013 .76083 699.01 233.08)"/><rect x="515" y="419" width="13" height="34" fill="#EDF6E5" rx="0" transform="matrix(.48533 .90003 -.87437 .43897 692.578 -252.087)"/><rect x="952" y="264" width="9" height="14" fill="#b5eaea" rx="0" transform="matrix(.52298 .93358 -.87039 .35837 739.927 -719.087)"/><rect x="1059" y="218" width="12" height="18" fill="#EDF6E5" rx="0" transform="matrix(.84664 .486 -.53027 .87676 246.689 -415.134)"/><rect x="993" y="493" width="12" height="27" fill="#b5eaea" rx="0" transform="matrix(-.91919 .39127 -.39033 -.92177 2138.77 530.144)"/><rect x="400" y="459" width="13" height="25" fill="#FFBCBC" rx="0" transform="matrix(-.50054 .8388 -.86713 -.54472 1051.294 380.27)"/><rect x="70" y="988" width="7" height="15" fill="#FFBCBC" rx="0" transform="matrix(-.76213 .28982 -.79254 -1.01073 1153.831 2004.262)"/><rect x="1251" y="791" width="10" height="22" fill="#FFBCBC" rx="0" transform="matrix(.65354 .8977 -.78096 .4574 1161.983 -538.126)"/><rect x="1313" y="282" width="7" height="15" fill="#b5eaea" rx="0" transform="matrix(-.70903 .461 -.77768 -.90475 2576.469 176.661)"/><rect x="1013" y="1052" width="10" height="17" fill="#b5eaea" rx="0" transform="matrix(.63476 .9014 -.75754 .49965 1106.306 -133.185)"/><rect x="403" y="1087" width="7" height="11" fill="#EDF6E5" rx="0" transform="matrix(1.0855 .52285 -.03246 .9056 259.34 14.88)"/><rect x="550" y="413" width="9" height="17" fill="#EDF6E5" rx="0" transform="matrix(.11597 .9901 -1.02837 -.15682 1055.435 -100.187)"/><rect x="552" y="1067" width="13" height="16" fill="#FFBCBC" rx="0" transform="matrix(1.06217 .7522 -.3037 .7264 602.356 44.764)"/><rect x="1187" y="842" width="9" height="11" fill="#b5eaea" rx="0" transform="matrix(-.81358 .44268 -.59089 -.90763 2697.1 1256.716)"/><rect x="1908" y="1074" width="8" height="11" fill="#FFBCBC" rx="0" transform="matrix(-.77806 .44437 -.58184 -.95295 3848.988 1879.824)"/><rect x="831" y="534" width="9" height="17" fill="#FFBCBC" rx="0" transform="matrix(-.0524 1 -1.00924 .17633 1406.09 -535.979)"/><rect x="82" y="472" width="12" height="25" fill="#FFBCBC" rx="0" transform="matrix(-.03874 .95557 -1.03085 -.38607 644.083 609.404)"/><rect x="681" y="524" width="13" height="32" fill="#FFBCBC" rx="0" transform="matrix(-.50924 .85442 -.85218 -.5339 1561.808 156.48)"/><rect x="871" y="897" width="9" height="19" fill="#F38BA0" rx="0" transform="matrix(-.92919 .26205 -.34836 -.97797 2196.236 1424.94)"/><rect x="208" y="653" width="10" height="19" fill="#b5eaea" rx="0" transform="matrix(.97194 .34966 -.18952 .96069 94.44 -3.158)"/><rect x="199" y="133" width="10" height="26" fill="#b5eaea" rx="0" transform="matrix(-1.0146 .1392 .035 -.99042 383.307 258.645)"/><rect x="1049" y="584" width="12" height="26" fill="#EDF6E5" rx="0" transform="matrix(.2802 .99315 -.9725 .12194 1448.845 -560.416)"/><rect x="216" y="681" width="13" height="37" fill="#b5eaea" rx="0" transform="matrix(.12127 .98274 -1.05234 -.2818 1076.791 725.25)"/><rect x="382" y="646" width="13" height="23" fill="#EDF6E5" rx="0" transform="matrix(-1.0051 -.05262 -.17563 -1.00413 980.198 1378.993)"/><rect x="1898" y="881" width="12" height="18" fill="#b5eaea" rx="0" transform="matrix(-.45237 .8708 -.8872 -.50275 3497.793 -120.425)"/><rect x="1075" y="982" width="10" height="20" fill="#b5eaea" rx="0" transform="matrix(1.01424 .5739 -.23879 .85084 395.962 -222.514)"/><rect x="1933" y="131" width="9" height="14" fill="#F38BA0" rx="0" transform="matrix(.15635 .97496 -.98958 .22509 1749.526 -1714.396)"/><rect x="1119" y="822" width="8" height="11" fill="#EDF6E5" rx="0" transform="matrix(.98894 .37829 -.19578 .9363 392.019 -529.93)"/><rect x="1492" y="1232" width="7" height="15" fill="#b5eaea" rx="0" transform="matrix(-.35448 .94675 -.92722 -.34459 3285.901 67.13)"/><rect x="333" y="746" width="10" height="25" fill="#b5eaea" rx="0" transform="matrix(.98925 .54614 -.2479 .87401 250.6 -4.76)"/><rect x="797" y="722" width="10" height="28" fill="#F38BA0" rx="0" transform="matrix(-.60528 .86721 -.80366 -.50069 1830.401 366.968)"/><rect x="140" y="751" width="7" height="10" fill="#FFBCBC" rx="0" transform="matrix(-.96577 -.0367 -.40466 -1.05082 686.562 1602.313)"/><rect x="238" y="1007" width="13" height="20" fill="#FFBCBC" rx="0" transform="matrix(-.94918 .09023 -.23362 -1.03134 600.39 2109.322)"/><rect x="67" y="1372" width="7" height="9" fill="#FFBCBC" rx="0" transform="matrix(-.40815 .94566 -.91692 -.32562 1265.251 1756.813)"/><rect x="706" y="389" width="11" height="25" fill="#F38BA0" rx="0" transform="matrix(1.0658 .22998 .26819 .99614 4.006 -10.844)"/><rect x="269" y="1000" width="11" height="11" fill="#F38BA0" rx="0" transform="matrix(.87142 .89691 -.57041 .56045 724.465 290.28)"/><rect x="1617" y="1076" width="10" height="21" fill="#F38BA0" rx="0" transform="matrix(.24083 1.03046 -.96624 .01799 2255.166 -200.033)"/><rect x="1681" y="542" width="11" height="21" fill="#EDF6E5" rx="0" transform="matrix(.05147 1.00244 -.99486 .05254 2088.111 -1019.598)"/><rect x="704" y="1072" width="7" height="18" fill="#b5eaea" rx="0" transform="matrix(-.5668 .60773 -.8933 -.80648 2346.692 1622.273)"/><rect x="211" y="961" width="7" height="18" fill="#FFBCBC" rx="0" transform="matrix(-.87197 .12814 -.70226 -1.04362 1361.313 2024.525)"/><rect x="1185" y="576" width="13" height="23" fill="#F38BA0" rx="0" transform="matrix(.444 .81965 -.90914 .57393 1129.568 -767.904)"/><rect x="1606" y="627" width="9" height="19" fill="#EDF6E5" rx="0" transform="matrix(.34292 1.00168 -1.02832 -.08764 1974.567 -751.658)"/><rect x="1667" y="772" width="7" height="19" fill="#b5eaea" rx="0" transform="matrix(.94772 .66913 -.44193 .74314 671.632 -917.05)"/><rect x="173" y="1234" width="9" height="23" fill="#b5eaea" rx="0" transform="matrix(-.80074 .47409 -.60335 -.89162 1093.278 2296.815)"/><rect x="1236" y="333" width="9" height="24" fill="#F38BA0" rx="0" transform="matrix(.85932 .60633 -.5089 .80463 394.563 -837.07)"/><rect x="1475" y="1113" width="10" height="26" fill="#b5eaea" rx="0" transform="matrix(1.0795 .34433 .23087 1 0 0)"/><rect x="1614" y="1301" width="11" height="15" fill="#FFBCBC" rx="0" transform="matrix(.03687 .98178 -1.02573 -.19084 3221.148 -60.044)"/><rect x="1461" y="1058" width="11" height="13" fill="#EDF6E5" rx="0" transform="matrix(.576 .8708 -.81582 .50275 1667.19 -901.84)"/><rect x="1372" y="1319" width="10" height="17" fill="#b5eaea" rx="0" transform="matrix(-.27056 .7895 -1.0396 -.66247 3484.78 1463.112)"/><rect x="1057" y="1369" width="9" height="22" fill="#EDF6E5" rx="0" transform="matrix(.85262 .61604 -.53197 .7885 1079.3 -399.11)"/><rect x="1249" y="570" width="8" height="16" fill="#F38BA0" rx="0" transform="matrix(.12187 1.01845 -.99255 -.0891 1673.99 -380.283)"/><rect x="1835" y="1308" width="8" height="18" fill="#F38BA0" rx="0" transform="matrix(1.00449 .05237 .0711 .99924 96.516 -159.52)"/><rect x="1227" y="1101" width="12" height="24" fill="#FFBCBC" rx="0" transform="matrix(.98769 0 .13389 1.01247 129.316 -209.162)"/><rect x="1251" y="13" width="7" height="10" fill="#F38BA0" rx="0" transform="matrix(.05722 1 -1.005 -.08749 1179.624 -1344.68)"/><rect x="1709" y="374" width="7" height="20" fill="#EDF6E5" rx="0" transform="matrix(-.639 .66834 -.76116 -.76884 3074.04 -132.42)"/><rect x="959" y="256" width="8" height="19" fill="#FFBCBC" rx="0" transform="matrix(.75267 .93415 -.7664 .37742 551.691 -616.047)"/><rect x="1214" y="436" width="11" height="32" fill="#FFBCBC" rx="0" transform="matrix(-.6192 .6757 -.79225 -.75045 2354.47 138.568)"/><rect x="1414" y="1091" width="10" height="20" fill="#F38BA0" rx="0" transform="matrix(.7269 .69848 -.67894 .7233 1025.67 -537.363)"/><rect x="739" y="1328" width="8" height="8" fill="#FFBCBC" rx="0" transform="matrix(.20253 1.04553 -.95999 -.01825 1762.197 806.636)"/><rect x="18" y="848" width="7" height="14" fill="#FFBCBC" rx="0" transform="matrix(.56526 1.01845 -.93243 .0891 1036.895 761.49)"/><rect x="388" y="1173" width="10" height="10" fill="#FFBCBC" rx="0" transform="matrix(-.33656 .7627 -1.0081 -.68673 1959.433 1777.963)"/><rect x="482" y="721" width="13" height="37" fill="#b5eaea" rx="0" transform="matrix(-.9937 -.14283 -.06942 -1.01632 1010.38 1673.62)"/><rect x="754" y="1131" width="13" height="34" fill="#F38BA0" rx="0" transform="matrix(-.78984 .55928 -.61703 -.82916 2130.386 1687.824)"/><rect x="100" y="1365" width="13" height="38" fill="#FFBCBC" rx="0" transform="matrix(.60729 .89591 -.80675 .4565 1255.927 667.995)"/></svg>